<svg xmlns="http://www.w3.org/2000/svg" viewBox="0 0 800 600"><defs><linearGradient id="bg" x1="0" y1="0" x2="0" y2="1"><stop offset="0" stop-color="#f0f9f4"/><stop offset="1" stop-color="#dcf0e4"/></linearGradient></defs><rect width="800" height="600" fill="url(#bg)"/><g stroke="#bbe0cb" stroke-width="1" opacity="0.35"><path d="M100 0v600M200 0v600M300 0v600M400 0v600M500 0v600M600 0v600M700 0v600M0 100h800M0 200h800M0 300h800M0 400h800M0 500h800"/></g><ellipse cx="400" cy="480" rx="300" ry="30" fill="#c4e3bd"/><g><ellipse cx="400" cy="290" rx="300" ry="22" fill="#111827"/><ellipse cx="400" cy="290" rx="300" ry="22" fill="none" stroke="#1f2937" stroke-width="4"/></g><g><ellipse cx="400" cy="290" rx="46" ry="22" fill="#2d7352"/><ellipse cx="400" cy="290" rx="46" ry="22" fill="none" stroke="#1f5c43" stroke-width="4"/><ellipse cx="400" cy="290" rx="20" ry="9" fill="#1f2937"/></g><g><path d="M400 314v26" stroke="#4aa3d8" stroke-width="6" stroke-linecap="round"/><circle cx="400" cy="348" r="10" fill="#8ed6f0"/></g><g fill="#3d8f66"><ellipse cx="250" cy="276" rx="34" ry="7"/><ellipse cx="330" cy="272" rx="34" ry="7"/><ellipse cx="470" cy="272" rx="34" ry="7"/><ellipse cx="550" cy="276" rx="34" ry="7"/></g><g stroke="#2d7352" stroke-width="7" stroke-linecap="round"><path d="M250 314v22M330 314v22M470 314v22M550 314v22"/></g><g fill="#8ed6f0"><circle cx="250" cy="344" r="9"/><circle cx="330" cy="344" r="9"/><circle cx="470" cy="344" r="9"/><circle cx="550" cy="344" r="9"/></g><g fill="#5ca86f"><path d="M400 430c-46 0-68 30-68 54h136c0-24-22-54-68-54Z"/><path d="M400 430v-40" stroke="#3d8f66" stroke-width="10" stroke-linecap="round" fill="none"/><ellipse cx="360" cy="398" rx="40" ry="18" transform="rotate(-24 360 398)" fill="#3d8f66"/><ellipse cx="440" cy="398" rx="40" ry="18" transform="rotate(24 440 398)" fill="#3d8f66"/></g></svg>