<svg xmlns="http://www.w3.org/2000/svg" viewBox="0 0 800 600">
  <defs>
    <linearGradient id="bg" x1="0" y1="0" x2="0" y2="1">
      <stop offset="0" stop-color="#f0f9f4"/>
      <stop offset="1" stop-color="#dcf0e4"/>
    </linearGradient>
  </defs>
  <rect width="800" height="600" fill="url(#bg)"/>
  <g stroke="#bbe0cb" stroke-width="1" opacity="0.4">
    <path d="M100 0v600M200 0v600M300 0v600M400 0v600M500 0v600M600 0v600M700 0v600M0 100h800M0 200h800M0 300h800M0 400h800M0 500h800"/>
  </g>
  <ellipse cx="400" cy="512" rx="320" ry="34" fill="#c4e3bd"/>
  <rect x="300" y="260" width="260" height="90" rx="14" fill="#2d7352"/>
  <rect x="312" y="272" width="236" height="66" rx="8" fill="#3d8f66"/>
  <rect x="560" y="240" width="90" height="120" rx="12" fill="#1c3c2e"/>
  <rect x="470" y="180" width="60" height="80" rx="8" fill="#265c43"/>
  <path d="M480 188l30 44-50 6z" fill="#f5b93d"/>
  <rect x="140" y="392" width="300" height="18" rx="9" fill="#374151"/>
  <path d="M150 400l24 34 24-34 24 34 24-34 24 34 24-34 24 34 24-34 24 34 24-34 24 34 24-34 24 34 24-34 24 34 24-34 24 34 24-34 24 34 24-34 24 34 24-34 24 34" stroke="#9ca3af" stroke-width="6" fill="none"/>
  <circle cx="480" cy="440" r="52" fill="#1f2937"/>
  <circle cx="480" cy="440" r="30" fill="#374151"/>
  <circle cx="480" cy="440" r="10" fill="#9ca3af"/>
  <path d="M300 350v60M380 350v60M460 350v60" stroke="#265c43" stroke-width="12"/>
  <rect x="120" y="300" width="50" height="100" rx="10" fill="#265c43"/>
</svg>
