<svg xmlns="http://www.w3.org/2000/svg" viewBox="0 0 800 600"><defs><linearGradient id="bg" x1="0" y1="0" x2="0" y2="1"><stop offset="0" stop-color="#f0f9f4"/><stop offset="1" stop-color="#dcf0e4"/></linearGradient></defs><rect width="800" height="600" fill="url(#bg)"/><g stroke="#bbe0cb" stroke-width="1" opacity="0.35"><path d="M100 0v600M200 0v600M300 0v600M400 0v600M500 0v600M600 0v600M700 0v600M0 100h800M0 200h800M0 300h800M0 400h800M0 500h800"/></g><ellipse cx="400" cy="480" rx="300" ry="30" fill="#c4e3bd"/><g><rect x="120" y="200" width="560" height="40" rx="20" fill="#374151"/><rect x="120" y="200" width="560" height="16" rx="8" fill="#4b5563"/></g><g><g><rect x="196" y="200" width="34" height="16" fill="#1f2937"/><rect x="188" y="150" width="50" height="56" rx="10" fill="#1f5c43"/><rect x="198" y="162" width="30" height="32" rx="6" fill="#2d7352"/><rect x="196" y="196" width="34" height="16" fill="#4aa3d8"/></g><g><rect x="386" y="200" width="34" height="16" fill="#1f2937"/><rect x="378" y="150" width="50" height="56" rx="10" fill="#1f5c43"/><rect x="388" y="162" width="30" height="32" rx="6" fill="#2d7352"/><rect x="386" y="196" width="34" height="16" fill="#4aa3d8"/></g><g><rect x="576" y="200" width="34" height="16" fill="#1f2937"/><rect x="568" y="150" width="50" height="56" rx="10" fill="#1f5c43"/><rect x="578" y="162" width="30" height="32" rx="6" fill="#2d7352"/><rect x="576" y="196" width="34" height="16" fill="#4aa3d8"/></g></g><g stroke="#4aa3d8" stroke-width="6" stroke-linecap="round"><path d="M213 210v26M403 210v26M593 210v26"/></g><g fill="#8ed6f0"><circle cx="213" cy="244" r="10"/><circle cx="403" cy="244" r="10"/><circle cx="593" cy="244" r="10"/></g><g fill="#5ca86f"><path d="M213 340c-46 0-64 30-64 52h128c0-22-18-52-64-52Z"/><path d="M403 340c-46 0-64 30-64 52h128c0-22-18-52-64-52Z"/><path d="M593 340c-46 0-64 30-64 52h128c0-22-18-52-64-52Z"/></g><g stroke="#3d8f66" stroke-width="9" stroke-linecap="round" fill="none"><path d="M213 340v-28M403 340v-28M593 340v-28"/></g><g stroke="#f5b93d" stroke-width="5" stroke-linecap="round"><path d="M172 418h82M362 418h82M552 418h82"/></g><g fill="#f5b93d" opacity="0.85"><circle cx="213" cy="418" r="8"/><circle cx="403" cy="418" r="8"/><circle cx="593" cy="418" r="8"/></g></svg>